mtllib materials.mtl
v 0.1543012 0.06118387 0.06046343
v 0.1667737 0.05760205 -0.02340913
v 0.1597826 -0.4747714 -0.001713634
v 0.1473101 -0.4711896 0.08215904
v 0.1356044 0.05479646 -0.102299
v 0.1286134 -0.477577 -0.08060348
v 0.06914496 0.05351871 -0.1550677
v 0.06215394 -0.4788547 -0.1333722
v -0.01479673 0.0541113 -0.1675757
v -0.02178764 -0.4782622 -0.1458802
v -0.09372854 0.05641538 -0.1364717
v -0.1007197 -0.4759581 -0.1147763
v -0.1465008 0.05981362 -0.07008994
v -0.153492 -0.4725598 -0.04839444
v -0.1589735 0.06339538 0.01378262
v -0.1659646 -0.468978 0.03547812
v -0.127804 0.06620109 0.09267247
v -0.1347952 -0.4661724 0.114368
v -0.06134486 0.06747878 0.1454411
v -0.06833577 -0.4648947 0.1671367
v 0.02259684 0.06688619 0.1579492
v 0.01560593 -0.4654873 0.1796447
v 0.1015289 0.06458211 0.1268452
v 0.09453773 -0.4677913 0.1485407
v 0.19458 0.07047254 0.06976414
v 0.2047578 0.06658828 -0.03237033
v 0.2038802 0.0305441 -0.0310868
v 0.1937025 0.03442836 0.07104754
v 0.1624831 0.06428546 -0.1259524
v 0.1616056 0.02824128 -0.1246691
v 0.07908344 0.06418115 -0.1859072
v 0.07820606 0.02813697 -0.1846241
v -0.02309418 0.06630331 -0.1961701
v -0.02397156 0.03025913 -0.1948868
v -0.1166713 0.07008326 -0.153991
v -0.1175487 0.03403908 -0.1527075
v -0.1765742 0.07450819 -0.07067132
v -0.1774518 0.03846401 -0.06938803
v -0.1867521 0.07839245 0.03146315
v -0.1876295 0.04234833 0.03274643
v -0.1444774 0.08069527 0.1250452
v -0.145355 0.04465109 0.1263286
v -0.06107783 0.08079958 0.1850001
v -0.06195545 0.0447554 0.1862836
v 0.04109979 0.07867748 0.1952629
v 0.04022217 0.0426333 0.1965463
v 0.1346769 0.07489747 0.1530838
v 0.1337994 0.03885335 0.154367
v -0.05944705 0.4535566 -0.06047535
v -0.05697203 0.4560167 -0.03240716
v -0.04992032 0.3267633 -0.02170062
v -0.05239534 0.3243033 -0.04976881
v -0.02883816 0.4573365 -0.03500366
v -0.02178645 0.3280831 -0.02429712
v -0.03131318 0.4548765 -0.06307185
v -0.02426147 0.3256231 -0.0523653
v 0.01863647 -0.15485 0.02748299
v 0.01586103 -0.1388704 0.05065513
v 0.03874457 -0.1240311 0.04316258
v 0.04152 -0.1400106 0.01999032
v -0.0446701 0.3132439 -0.01680458
v -0.04189467 0.2972642 -0.03997684
v -0.01901126 0.3121036 -0.04746926
v -0.01958084 0.2856717 0.005214334
v -0.01680541 0.2696921 -0.01795793
v 0.003302574 0.3005111 -0.002278328
v 0.006078005 0.2845315 -0.02545047
v -0.01586819 0.2761118 0.008676291
v -0.01834321 0.2736518 -0.01939189
v 0.01226568 0.2774317 0.006079674
v 0.009790659 0.2749718 -0.02198851
v 0.005876303 -0.1224177 0.04168844
v 0.003401041 -0.1248776 0.01362026
v 0.03401017 -0.1210978 0.03909183
v 0.03153503 -0.1235577 0.01102364
v 0.009588718 -0.1319774 0.0451504
v 0.01236415 -0.147957 0.02197826
v 0.03247237 -0.1171381 0.03765786
v 0.03524768 -0.1331176 0.0144856
vn 0.9890555 -0.006982064 0.1473785
vn 0.9890556 -0.006982041 0.1473783
vn 0.9300269 -0.02714817 -0.3664872
vn 0.9300269 -0.02714817 -0.3664872
vn 0.6217985 -0.04003995 -0.7821531
vn 0.6217986 -0.04003996 -0.7821531
vn 0.1469586 -0.04220304 -0.9882419
vn 0.1469588 -0.04220307 -0.9882419
vn -0.3672574 -0.0330578 -0.9295317
vn -0.3672564 -0.033058 -0.9295321
vn -0.7830681 -0.01505468 -0.6217537
vn -0.7830682 -0.01505468 -0.6217537
vn -0.9890553 0.006982227 -0.1473799
vn -0.9890553 0.006982227 -0.1473799
vn -0.9300265 0.02714842 0.3664884
vn -0.9300265 0.02714842 0.3664884
vn -0.621799 0.04003999 0.7821527
vn -0.6217985 0.04004009 0.7821531
vn -0.14696 0.04220304 0.9882417
vn -0.1469586 0.04220325 0.9882419
vn 0.3672565 0.03305784 0.9295321
vn 0.3672574 0.03305798 0.9295317
vn 0.7830681 0.01505498 0.6217536
vn 0.7830669 0.01505475 0.6217551
vn 0.01311948 0.9990846 -0.04071573
vn 0.01312002 0.9990847 -0.04071501
vn 0.01312008 0.9990847 -0.04071485
vn 0.01311994 0.9990846 -0.04071604
vn 0.01311974 0.9990847 -0.04071471
vn 0.01312 0.9990846 -0.04071531
vn 0.01311979 0.9990846 -0.04071504
vn 0.01311998 0.9990847 -0.04071518
vn 0.01311924 0.9990847 -0.04071489
vn 0.01312157 0.9990847 -0.04071516
vn -0.01311935 -0.9990847 0.04071543
vn -0.01311984 -0.9990847 0.04071522
vn -0.01311995 -0.9990847 0.04071521
vn -0.01311999 -0.9990847 0.04071521
vn -0.01311972 -0.9990847 0.04071511
vn -0.01312001 -0.9990846 0.04071532
vn -0.0131198 -0.9990846 0.04071505
vn -0.01311989 -0.9990847 0.04071528
vn -0.01311987 -0.9990847 0.04071512
vn -0.01311992 -0.9990847 0.04071471
vn 0.9947811 -0.0206633 0.09991725
vn 0.9947814 -0.0206604 0.09991612
vn 0.9110494 -0.03680017 -0.4106516
vn 0.9110501 -0.03680578 -0.4106495
vn 0.5832028 -0.04307417 -0.8111837
vn 0.5832041 -0.04307886 -0.8111826
vn 0.09908935 -0.0378144 -0.9943597
vn 0.09908828 -0.03781109 -0.99436
vn -0.4115762 -0.02242559 -0.9110994
vn -0.411578 -0.02241948 -0.9110988
vn -0.8119624 -0.00101193 -0.5837089
vn -0.8119607 -0.001021256 -0.5837112
vn -0.9947813 0.02065744 -0.09991705
vn -0.9947814 0.02066406 -0.099915
vn -0.9110493 0.03680444 0.4106514
vn -0.9110506 0.0367971 0.4106493
vn -0.5832031 0.04308626 0.8111829
vn -0.583204 0.04308346 0.8111824
vn -0.09908927 0.03781833 0.9943596
vn -0.09908805 0.03782159 0.9943596
vn 0.4115759 0.02241519 0.9110997
vn 0.4115776 0.02241978 0.9110989
vn 0.8119619 0.001016603 0.5837095
vn 0.8119611 0.001012757 0.5837108
vn 0.02432377 0.9990711 -0.03557086
vn 0.02432244 0.9990711 -0.03557248
vn 0.02432268 0.9990711 -0.03557195
vn 0.02432264 0.9990711 -0.03557219
vn 0.02432259 0.9990711 -0.03557169
vn 0.0243226 0.9990711 -0.03557173
vn 0.02432268 0.9990711 -0.03557185
vn 0.02432297 0.9990711 -0.03557208
vn 0.02432264 0.9990711 -0.03557193
vn 0.02432172 0.9990711 -0.03557178
vn -0.02432381 -0.9990711 0.03557165
vn -0.02432266 -0.9990711 0.03557209
vn -0.02432282 -0.9990711 0.03557206
vn -0.02432293 -0.9990711 0.03557208
vn -0.02432257 -0.9990711 0.03557192
vn -0.02432248 -0.9990711 0.03557185
vn -0.02432281 -0.9990711 0.03557231
vn -0.02432246 -0.9990711 0.03557137
vn -0.02432248 -0.9990711 0.03557159
vn -0.02432237 -0.9990711 0.03557229
vn -0.9946836 -0.04666303 0.09180009
vn -0.9946836 -0.04666309 0.09179989
vn 0.08750568 0.08697496 0.9923599
vn 0.08750568 0.08697496 0.9923599
vn 0.9946836 0.04666304 -0.09179989
vn 0.9946836 0.04666305 -0.09179989
vn -0.08750531 -0.08697503 -0.9923599
vn -0.08750569 -0.08697496 -0.9923599
vn 0.5794833 -0.6368329 0.5085695
vn 0.5794877 -0.6368331 0.5085642
vn -0.05428858 0.9951172 -0.08242876
vn -0.05429312 0.9951167 -0.08243254
vn -0.9393233 -0.324486 0.1112677
vn -0.9393213 -0.3244929 0.111265
vn 0 0 0
vn 0.06871754 0.3631862 0.929179
vn 0.9393234 0.324486 -0.1112678
vn 0 0 0
vn -0.06871795 -0.3631812 -0.929181
vn -0.06871206 -0.3631845 -0.9291801
vn -0.8090541 -0.5246526 0.2648982
vn -0.8090536 -0.5246537 0.2648977
vn -0.09812085 0.5649679 0.819258
vn -0.09812075 0.564968 0.8192578
vn 0.8090542 0.5246505 -0.2649024
vn 0.8090554 0.5246511 -0.264897
vn 0.09812776 -0.5649644 -0.8192596
vn 0.09812225 -0.5649648 -0.8192599
vn -0.939319 -0.3244983 0.1112681
vn 0.9393184 0.3245001 -0.1112685
vn 0.06872261 0.3631842 0.9291794
vn 0.06872067 0.3631771 0.9291824
vn 0.9393172 0.3245023 -0.1112717
vn 0.9393186 0.3244997 -0.1112678
vn 0.06872024 0.3631811 0.9291808
vn -0.06871944 -0.3631826 -0.9291803
vn -0.9946833 -0.04666744 0.09180024
vn -0.9946826 -0.04666615 0.09180836
vn 0.0875094 0.08697666 0.9923595
vn 0.08750928 0.08697664 0.9923595
vn 0.9946833 0.04666717 -0.09180012
vn 0.994683 0.0466671 -0.09180426
vn -0.08750921 -0.08697661 -0.9923595
vn -0.08750896 -0.08697661 -0.9923594
vn -0.9393237 -0.3244826 0.1112741
vn -0.9393186 -0.3244991 0.1112694
vn -0.0687196 -0.363181 -0.9291809
vn 0.06871907 0.363183 0.9291801
vn 0.9393185 0.3244988 -0.1112717
vn -0.9393184 -0.3244989 0.1112718
vn -0.06871986 -0.3631833 -0.92918
vn -0.06872441 -0.3631802 -0.9291809
vn -0.8090541 -0.5246526 0.2648982
vn -0.8090541 -0.5246526 0.2648982
vn -0.09812254 0.564968 0.8192577
vn -0.09812224 0.5649671 0.8192583
vn 0.8090541 0.5246525 -0.2648983
vn 0.809059 0.5246488 -0.2648909
vn 0.0981214 -0.5649677 -0.819258
vn 0.09812137 -0.5649677 -0.819258
vt 0.4855573 0.5656466
vt 0.4824159 0.5684996
vt 0.4645036 0.5487765
vt 0.4855573 0.5656466
vt 0.4645036 0.5487765
vt 0.4676449 0.5459235
vt 0.3937844 0.5286354
vt 0.3895612 0.5282204
vt 0.392167 0.5017051
vt 0.3937844 0.5286355
vt 0.392167 0.5017051
vt 0.3963902 0.5021201
vt 0.3879592 0.4363647
vt 0.3850738 0.433253
vt 0.4046101 0.4151371
vt 0.3879592 0.4363647
vt 0.4046101 0.4151372
vt 0.4074955 0.4182488
vt 0.4123734 0.4239776
vt 0.4102857 0.4202831
vt 0.4334812 0.4071752
vt 0.4123734 0.4239776
vt 0.4334812 0.4071752
vt 0.435569 0.4108696
vt 0.4356381 0.4586254
vt 0.4337301 0.454835
vt 0.4575282 0.4428557
vt 0.435638 0.4586253
vt 0.4575281 0.4428556
vt 0.4594361 0.446646
vt 0.464439 0.5163029
vt 0.4622602 0.5126615
vt 0.4851232 0.4989817
vt 0.464439 0.5163029
vt 0.4851232 0.4989817
vt 0.487302 0.5026232
vt 0.5175839 0.5684995
vt 0.5144426 0.5656465
vt 0.5323549 0.5459235
vt 0.5175839 0.5684995
vt 0.5323549 0.5459235
vt 0.5354962 0.5487764
vt 0.6104389 0.5282201
vt 0.6062158 0.5286352
vt 0.6036099 0.5021198
vt 0.6104389 0.5282201
vt 0.6036099 0.5021198
vt 0.6078331 0.5017048
vt 0.6149262 0.4332531
vt 0.6120408 0.4363647
vt 0.5925045 0.4182488
vt 0.6149262 0.4332531
vt 0.5925045 0.4182488
vt 0.5953899 0.4151372
vt 0.5897144 0.4202831
vt 0.5876266 0.4239775
vt 0.5644311 0.4108696
vt 0.5897143 0.4202831
vt 0.564431 0.4108696
vt 0.5665188 0.4071752
vt 0.56627 0.4548349
vt 0.564362 0.4586253
vt 0.5405639 0.446646
vt 0.5662699 0.454835
vt 0.5405639 0.4466461
vt 0.5424718 0.4428557
vt 0.5377399 0.5126615
vt 0.535561 0.5163029
vt 0.5126981 0.5026232
vt 0.5377399 0.5126612
vt 0.5126981 0.502623
vt 0.5148769 0.4989815
vt 0.5960353 0.432953
vt 0.5937346 0.4293874
vt 0.5935249 0.425149
vt 0.5960354 0.4329531
vt 0.593525 0.425149
vt 0.5954626 0.4213737
vt 0.5960354 0.4329531
vt 0.5954626 0.4213737
vt 0.5990282 0.419073
vt 0.5960353 0.432953
vt 0.5990282 0.4190729
vt 0.6032665 0.4188632
vt 0.5960354 0.4329531
vt 0.6032666 0.4188633
vt 0.607042 0.4208009
vt 0.5960354 0.432953
vt 0.6070419 0.4208009
vt 0.6093426 0.4243665
vt 0.5960354 0.4329531
vt 0.6093427 0.4243666
vt 0.6095523 0.4286049
vt 0.5960354 0.4329531
vt 0.6095523 0.4286049
vt 0.6076148 0.4323802
vt 0.5960354 0.4329531
vt 0.6076148 0.4323803
vt 0.6040491 0.434681
vt 0.5960354 0.432953
vt 0.6040491 0.4346809
vt 0.5998108 0.4348906
vt 0.4062654 0.4293874
vt 0.4039647 0.432953
vt 0.4001893 0.4348906
vt 0.4062654 0.4293874
vt 0.4001893 0.4348907
vt 0.3959509 0.434681
vt 0.4062654 0.4293874
vt 0.3959509 0.434681
vt 0.3923852 0.4323802
vt 0.4062654 0.4293874
vt 0.3923852 0.4323802
vt 0.3904477 0.4286049
vt 0.4062654 0.4293874
vt 0.3904477 0.4286049
vt 0.3906573 0.4243665
vt 0.4062654 0.4293874
vt 0.3906573 0.4243665
vt 0.3929581 0.4208009
vt 0.4062654 0.4293874
vt 0.3929581 0.4208009
vt 0.3967334 0.4188633
vt 0.4062654 0.4293874
vt 0.3967334 0.4188633
vt 0.4009718 0.4190729
vt 0.4062654 0.4293874
vt 0.4009718 0.4190729
vt 0.4045374 0.4213737
vt 0.4062653 0.4293874
vt 0.4045374 0.4213737
vt 0.406475 0.4251491
vt 0.4776094 0.5670543
vt 0.4736211 0.57029
vt 0.4724846 0.5688891
vt 0.4776096 0.5670547
vt 0.4724849 0.5688894
vt 0.4764731 0.5656538
vt 0.389258 0.5184848
vt 0.3842049 0.5175676
vt 0.3845271 0.5157927
vt 0.3892583 0.5184851
vt 0.3845274 0.515793
vt 0.3895805 0.5167103
vt 0.390136 0.4334926
vt 0.3867252 0.429653
vt 0.3880739 0.4284551
vt 0.3901356 0.4334931
vt 0.3880734 0.4284556
vt 0.3914843 0.4322951
vt 0.414698 0.4262911
vt 0.4121699 0.4218208
vt 0.4137401 0.4209328
vt 0.4146984 0.4262909
vt 0.4137405 0.4209326
vt 0.4162686 0.4254029
vt 0.4385171 0.4636722
vt 0.4361611 0.4591088
vt 0.437764 0.4582813
vt 0.4385178 0.4636721
vt 0.4377647 0.4582812
vt 0.4401207 0.4628446
vt 0.4689884 0.5219999
vt 0.4662502 0.5176551
vt 0.4677763 0.5166933
vt 0.468987 0.522
vt 0.4677749 0.5166934
vt 0.4705131 0.5210382
vt 0.5263781 0.5702906
vt 0.5223898 0.5670549
vt 0.5235264 0.5656541
vt 0.5263793 0.57029
vt 0.5235276 0.5656535
vt 0.5275158 0.5688891
vt 0.615795 0.5175674
vt 0.6107419 0.5184847
vt 0.6104198 0.5167097
vt 0.6157949 0.5175682
vt 0.6104196 0.5167106
vt 0.6154727 0.5157934
vt 0.6132755 0.4296542
vt 0.6098647 0.4334936
vt 0.608516 0.4322956
vt 0.6132754 0.429654
vt 0.608516 0.4322955
vt 0.6119268 0.428456
vt 0.5878304 0.421821
vt 0.5853022 0.4262913
vt 0.5837321 0.4254034
vt 0.5878306 0.4218212
vt 0.5837322 0.4254036
vt 0.5862604 0.4209332
vt 0.5638379 0.4591084
vt 0.561482 0.4636717
vt 0.5598791 0.4628442
vt 0.5638382 0.4591087
vt 0.5598794 0.4628446
vt 0.5622353 0.4582812
vt 0.5337505 0.5176552
vt 0.5310122 0.522
vt 0.5294861 0.5210382
vt 0.5337501 0.5176548
vt 0.5294858 0.5210379
vt 0.5322241 0.5166931
vt 0.5955426 0.4347645
vt 0.5925709 0.4305758
vt 0.5920917 0.4254625
vt 0.5955424 0.4347644
vt 0.5920916 0.4254625
vt 0.5942333 0.4207947
vt 0.5955424 0.4347644
vt 0.5942333 0.4207947
vt 0.5984219 0.4178231
vt 0.5955424 0.4347644
vt 0.5984219 0.4178231
vt 0.6035352 0.4173439
vt 0.5955424 0.4347644
vt 0.6035352 0.4173439
vt 0.6082031 0.4194856
vt 0.5955424 0.4347644
vt 0.6082031 0.4194856
vt 0.6111746 0.4236742
vt 0.5955424 0.4347644
vt 0.6111746 0.4236742
vt 0.6116538 0.4287875
vt 0.5955424 0.4347644
vt 0.6116538 0.4287875
vt 0.6095122 0.4334553
vt 0.5955424 0.4347644
vt 0.6095122 0.4334553
vt 0.6053235 0.4364269
vt 0.5955424 0.4347645
vt 0.6053235 0.436427
vt 0.6002102 0.4369061
vt 0.4074292 0.4305758
vt 0.4044575 0.4347644
vt 0.3997897 0.4369061
vt 0.4074292 0.4305758
vt 0.3997898 0.4369061
vt 0.3946765 0.4364269
vt 0.4074292 0.4305758
vt 0.3946765 0.4364269
vt 0.3904878 0.4334553
vt 0.4074292 0.4305758
vt 0.3904878 0.4334553
vt 0.3883462 0.4287875
vt 0.4074292 0.4305758
vt 0.3883462 0.4287875
vt 0.3888254 0.4236742
vt 0.4074292 0.4305758
vt 0.3888254 0.4236742
vt 0.3917969 0.4194856
vt 0.4074292 0.4305758
vt 0.391797 0.4194855
vt 0.3964648 0.4173439
vt 0.4074292 0.4305758
vt 0.3964647 0.4173439
vt 0.401578 0.4178231
vt 0.4074292 0.4305758
vt 0.401578 0.4178231
vt 0.4057667 0.4207947
vt 0.4074292 0.4305758
vt 0.4057667 0.4207947
vt 0.4079084 0.4254625
vt 0.5436116 0.5965174
vt 0.542333 0.5959131
vt 0.5451081 0.5900415
vt 0.5436115 0.5965174
vt 0.5451081 0.5900415
vt 0.5463867 0.5906458
vt 0.6012316 0.4422439
vt 0.6006514 0.4435336
vt 0.5947287 0.4408692
vt 0.6012316 0.4422439
vt 0.5947287 0.4408692
vt 0.5953088 0.4395795
vt 0.4576671 0.5959131
vt 0.4563885 0.5965174
vt 0.4536133 0.5906458
vt 0.4576671 0.5959131
vt 0.4536133 0.5906458
vt 0.4548919 0.5900415
vt 0.3993486 0.4435336
vt 0.3987684 0.4422438
vt 0.4046911 0.4395795
vt 0.3993486 0.4435336
vt 0.4046911 0.4395795
vt 0.4052713 0.4408692
vt 0.4609731 0.4551691
vt 0.4623813 0.4550384
vt 0.462512 0.4564465
vt 0.4609727 0.4551696
vt 0.4625115 0.4564471
vt 0.4611034 0.4565778
vt 0.5982063 0.426018
vt 0.596823 0.4257239
vt 0.5971172 0.4243406
vt 0.5982059 0.426018
vt 0.5971166 0.4243406
vt 0.5985 0.4246347
vt 0.4763796 0.6156036
vt 0.475562 0.6144496
vt 0.4760435 0.6138546
vt 0.4763754 0.6156029
vt 0.4760394 0.613854
vt 0.4773384 0.614413
vt 0.5 0.5
vt 0.5 0.5
vt 0.5 0.5
vt 0.6150584 0.4515839
vt 0.6144346 0.4528531
vt 0.6143058 0.4514447
vt 0.5241136 0.6142198
vt 0.5232961 0.6153737
vt 0.5228146 0.6147788
vt 0.5 0.5
vt 0.5 0.5
vt 0.5 0.5
vt 0.385209 0.4530282
vt 0.3845852 0.451759
vt 0.3860904 0.4514807
vt 0.3852086 0.4530281
vt 0.38609 0.4514806
vt 0.3859612 0.4528889
vt 0.3807879 0.4427879
vt 0.3816247 0.4416478
vt 0.3833699 0.4429287
vt 0.3807879 0.442788
vt 0.3833699 0.4429287
vt 0.3825331 0.4440688
vt 0.6270776 0.4533135
vt 0.6271738 0.4547244
vt 0.625014 0.4548716
vt 0.6270776 0.4533135
vt 0.625014 0.4548716
vt 0.6249179 0.4534606
vt 0.6183738 0.4416445
vt 0.6192105 0.4427846
vt 0.6174654 0.4440655
vt 0.6183762 0.4416498
vt 0.6174677 0.4440708
vt 0.616631 0.4429306
vt 0.3728262 0.4547243
vt 0.3729224 0.4533133
vt 0.3750821 0.4534605
vt 0.3728263 0.4547243
vt 0.3750822 0.4534605
vt 0.3749861 0.4548715
vt 0.4781579 0.6125048
vt 0.4768589 0.6119458
vt 0.4771993 0.6115251
vt 0.5218429 0.6125048
vt 0.5228014 0.6115251
vt 0.5219839 0.6126791
vt 0.6122366 0.4516341
vt 0.6123654 0.4530424
vt 0.6110806 0.452805
vt 0.6122363 0.4516338
vt 0.6110803 0.4528046
vt 0.6117041 0.4515354
vt 0.5232992 0.6123112
vt 0.5220003 0.6128702
vt 0.5216597 0.6124495
vt 0.523299 0.6123108
vt 0.5216596 0.6124492
vt 0.522477 0.6112952
vt 0.6119695 0.4530784
vt 0.6118407 0.4516701
vt 0.6120611 0.4517109
vt 0.3880304 0.4530784
vt 0.3879388 0.4517109
vt 0.3885626 0.4529801
vt 0.5462579 0.5875575
vt 0.5449793 0.5869532
vt 0.553536 0.5688492
vt 0.5462599 0.5875571
vt 0.5535378 0.5688487
vt 0.5548164 0.569453
vt 0.5922229 0.4397662
vt 0.5916427 0.4410559
vt 0.5733811 0.4328409
vt 0.5922229 0.4397661
vt 0.5733811 0.4328409
vt 0.5739613 0.4315512
vt 0.4550207 0.5869532
vt 0.4537421 0.5875575
vt 0.4451854 0.5694535
vt 0.4550198 0.586953
vt 0.4451846 0.5694533
vt 0.4464631 0.568849
vt 0.4083573 0.4410559
vt 0.4077771 0.4397661
vt 0.4260387 0.4315512
vt 0.4083572 0.4410559
vt 0.4260387 0.4315512
vt 0.4266188 0.4328409
vt 0.4937061 0.6015705
vt 0.4928885 0.6004165
vt 0.493229 0.5999959
vt 0.4936975 0.6015704
vt 0.4932205 0.5999958
vt 0.4945195 0.6005548
vt 0.4055422 0.4430592
vt 0.406166 0.4443284
vt 0.4059456 0.4443692
vt 0.5944579 0.4430593
vt 0.5940546 0.4443692
vt 0.5939257 0.4429609
vt 0.5067949 0.6001869
vt 0.5059773 0.6013408
vt 0.5056369 0.6009201
vt 0.4932051 0.6001869
vt 0.4943631 0.6009202
vt 0.4930641 0.6003611
vt 0.4058091 0.4445039
vt 0.4051853 0.4432347
vt 0.4064701 0.4429972
vt 0.4058095 0.444504
vt 0.4064705 0.4429973
vt 0.4063416 0.4444056
vt 0.3886571 0.4613458
vt 0.3894938 0.4602057
vt 0.3899301 0.4605259
vt 0.3886571 0.4613458
vt 0.3899301 0.4605259
vt 0.3890934 0.461666
vt 0.6090932 0.4442099
vt 0.6091893 0.4456208
vt 0.6086494 0.4456576
vt 0.6090932 0.4442099
vt 0.6086494 0.4456576
vt 0.6085532 0.4442466
vt 0.6105062 0.4602056
vt 0.6113429 0.4613457
vt 0.6109066 0.461666
vt 0.6105089 0.4602146
vt 0.6109093 0.461675
vt 0.6100726 0.4605348
vt 0.3908107 0.4456209
vt 0.3909068 0.4442099
vt 0.3914467 0.4442467
vt 0.3908107 0.4456209
vt 0.3914468 0.4442467
vt 0.3913506 0.4456576
o group1908699236
g mesh1908699236
usemtl mat8
f 3/3/1 2/2/1 1/1/1
f 4/6/2 3/5/2 1/4/2
f 6/9/3 5/8/3 2/7/3
f 3/12/4 6/11/4 2/10/4
f 8/15/5 7/14/5 5/13/5
f 6/18/6 8/17/6 5/16/6
f 10/21/7 9/20/7 7/19/7
f 8/24/8 10/23/8 7/22/8
f 12/27/9 11/26/9 9/25/9
f 10/30/10 12/29/10 9/28/10
f 14/33/11 13/32/11 11/31/11
f 12/36/12 14/35/12 11/34/12
f 16/39/13 15/38/13 13/37/13
f 14/42/14 16/41/14 13/40/14
f 18/45/15 17/44/15 15/43/15
f 16/48/16 18/47/16 15/46/16
f 20/51/17 19/50/17 17/49/17
f 18/54/18 20/53/18 17/52/18
f 22/57/19 21/56/19 19/55/19
f 20/60/20 22/59/20 19/58/20
f 24/63/21 23/62/21 21/61/21
f 22/66/22 24/65/22 21/64/22
f 4/69/23 1/68/23 23/67/23
f 24/72/24 4/71/24 23/70/24
f 21/75/25 23/74/25 1/73/25
f 19/78/26 21/77/26 1/76/26
f 17/81/27 19/80/27 1/79/27
f 15/84/28 17/83/28 1/82/28
f 13/87/29 15/86/29 1/85/29
f 11/90/30 13/89/30 1/88/30
f 9/93/31 11/92/31 1/91/31
f 7/96/32 9/95/32 1/94/32
f 5/99/33 7/98/33 1/97/33
f 2/102/34 5/101/34 1/100/34
f 3/105/35 4/104/35 24/103/35
f 6/108/36 3/107/36 24/106/36
f 8/111/37 6/110/37 24/109/37
f 10/114/38 8/113/38 24/112/38
f 12/117/39 10/116/39 24/115/39
f 14/120/40 12/119/40 24/118/40
f 16/123/41 14/122/41 24/121/41
f 18/126/42 16/125/42 24/124/42
f 20/129/43 18/128/43 24/127/43
f 22/132/44 20/131/44 24/130/44
o group1734204619
g mesh1734204619
usemtl mat21
f 27/135/45 26/134/45 25/133/45
f 28/138/46 27/137/46 25/136/46
f 30/141/47 29/140/47 26/139/47
f 27/144/48 30/143/48 26/142/48
f 32/147/49 31/146/49 29/145/49
f 30/150/50 32/149/50 29/148/50
f 34/153/51 33/152/51 31/151/51
f 32/156/52 34/155/52 31/154/52
f 36/159/53 35/158/53 33/157/53
f 34/162/54 36/161/54 33/160/54
f 38/165/55 37/164/55 35/163/55
f 36/168/56 38/167/56 35/166/56
f 40/171/57 39/170/57 37/169/57
f 38/174/58 40/173/58 37/172/58
f 42/177/59 41/176/59 39/175/59
f 40/180/60 42/179/60 39/178/60
f 44/183/61 43/182/61 41/181/61
f 42/186/62 44/185/62 41/184/62
f 46/189/63 45/188/63 43/187/63
f 44/192/64 46/191/64 43/190/64
f 48/195/65 47/194/65 45/193/65
f 46/198/66 48/197/66 45/196/66
f 28/201/67 25/200/67 47/199/67
f 48/204/68 28/203/68 47/202/68
f 45/207/69 47/206/69 25/205/69
f 43/210/70 45/209/70 25/208/70
f 41/213/71 43/212/71 25/211/71
f 39/216/72 41/215/72 25/214/72
f 37/219/73 39/218/73 25/217/73
f 35/222/74 37/221/74 25/220/74
f 33/225/75 35/224/75 25/223/75
f 31/228/76 33/227/76 25/226/76
f 29/231/77 31/230/77 25/229/77
f 26/234/78 29/233/78 25/232/78
f 27/237/79 28/236/79 48/235/79
f 30/240/80 27/239/80 48/238/80
f 32/243/81 30/242/81 48/241/81
f 34/246/82 32/245/82 48/244/82
f 36/249/83 34/248/83 48/247/83
f 38/252/84 36/251/84 48/250/84
f 40/255/85 38/254/85 48/253/85
f 42/258/86 40/257/86 48/256/86
f 44/261/87 42/260/87 48/259/87
f 46/264/88 44/263/88 48/262/88
o group1185581525
g mesh1185581525
usemtl mat25
f 51/267/89 50/266/89 49/265/89
f 52/270/90 51/269/90 49/268/90
f 54/273/91 53/272/91 50/271/91
f 51/276/92 54/275/92 50/274/92
f 56/279/93 55/278/93 53/277/93
f 54/282/94 56/281/94 53/280/94
f 52/285/95 49/284/95 55/283/95
f 56/288/96 52/287/96 55/286/96
f 59/291/97 58/290/97 57/289/97
f 60/294/98 59/293/98 57/292/98
f 50/297/99 53/296/99 55/295/99
f 49/300/100 50/299/100 55/298/100
f 61/303/101 51/302/101 52/301/101
f 62/306/102 61/305/102 52/304/102
f 54/309/103 54/308/103 51/307/103
f 61/312/104 54/311/104 51/310/104
f 63/315/105 56/314/105 54/313/105
f 54/318/106 63/317/106 54/316/106
f 62/321/107 52/320/107 56/319/107
f 63/324/108 62/323/108 56/322/108
f 64/327/109 61/326/109 62/325/109
f 65/330/110 64/329/110 62/328/110
f 66/333/111 54/332/111 61/331/111
f 64/336/112 66/335/112 61/334/112
f 67/339/113 63/338/113 54/337/113
f 66/342/114 67/341/114 54/340/114
f 65/345/115 62/344/115 63/343/115
f 67/348/116 65/347/116 63/346/116
f 68/351/117 64/350/117 65/349/117
f 69/354/118 68/353/118 65/352/118
f 70/357/119 66/356/119 64/355/119
f 68/360/120 70/359/120 64/358/120
f 71/363/121 67/362/121 66/361/121
f 70/366/122 71/365/122 66/364/122
f 69/369/123 65/368/123 67/367/123
f 71/372/124 69/371/124 67/370/124
f 72/375/125 68/374/125 69/373/125
f 73/378/126 72/377/126 69/376/126
f 74/381/127 70/380/127 68/379/127
f 72/384/128 74/383/128 68/382/128
f 75/387/129 71/386/129 70/385/129
f 74/390/130 75/389/130 70/388/130
f 73/393/131 69/392/131 71/391/131
f 75/396/132 73/395/132 71/394/132
f 76/399/133 72/398/133 73/397/133
f 77/402/134 76/401/134 73/400/134
f 78/405/135 74/404/135 72/403/135
f 76/408/136 78/407/136 72/406/136
f 79/411/137 75/410/137 74/409/137
f 78/414/138 79/413/138 74/412/138
f 77/417/139 73/416/139 75/415/139
f 79/420/140 77/419/140 75/418/140
f 58/423/141 76/422/141 77/421/141
f 57/426/142 58/425/142 77/424/142
f 59/429/143 78/428/143 76/427/143
f 58/432/144 59/431/144 76/430/144
f 60/435/145 79/434/145 78/433/145
f 59/438/146 60/437/146 78/436/146
f 57/441/147 77/440/147 79/439/147
f 60/444/148 57/443/148 79/442/148
